<svg width="62" height="62" viewBox="0 0 62 62" fill="none" xmlns="http://www.w3.org/2000/svg">
<path d="M25.0574 3.05374L24.1413 2.47549C22.3485 1.36903 20.1107 0.726237 18.187 1.32952C16.1194 1.97758 14.4705 3.58062 13.6068 5.98847L12.3767 5.35095C10.2567 4.2524 9.14702 4.23527 8.22705 4.65151C7.49291 4.98213 6.72736 5.77772 5.85974 6.9395L16.6429 15.3314C18.331 15.8846 20.8043 15.8715 23.2776 15.226C25.764 14.5806 28.2373 13.3161 30.0432 11.6169L34.1131 1.48758C30.5274 -1.36417 27.2559 0.287608 25.0574 3.05374ZM32.0062 13.1317C29.7815 15.3973 26.4707 16.9252 23.8927 17.6102C22.9897 17.8473 22.0868 18.0185 21.21 18.1107C20.7258 18.9142 20.3201 19.7309 20.006 20.5475C20.6342 23.7615 21.812 26.3959 23.5786 28.5562L21.6942 30.1368C20.608 28.8196 19.6396 27.397 18.9068 25.8164C18.789 28.8723 19.4695 32.0336 20.5818 35.3266L18.2656 36.1169C16.2241 30.1105 15.5305 23.9591 18.3964 18.1634C17.428 18.0844 16.512 17.9 15.6614 17.597L15.6221 17.5838C15.0594 18.1239 14.5229 18.6903 14.0125 19.283C9.88116 24.104 7.60545 30.5188 8.79631 35.511C9.43361 38.1849 10.576 40.714 12.2197 42.8742C14.6276 42.8215 16.9046 42.8742 18.9722 43.6645C19.9537 43.5591 20.9613 43.4933 22.0082 43.4933C25.7378 43.4933 29.1141 44.1914 31.6659 45.4032C32.6605 45.8774 33.5635 46.4438 34.2832 47.0892C34.2832 46.3911 34.3879 45.6403 34.5973 45.0871C33.4326 43.9806 32.6998 42.6371 32.6998 41.1091C32.6998 38.9884 34.1 37.2365 36.1284 35.972C36.1284 35.3661 36.2461 34.7865 36.4555 34.2333C35.1338 33.0873 34.2832 31.6648 34.2832 30.0051C34.2832 28.9645 34.6234 28.0161 35.1992 27.1599C34.6234 26.3169 34.2832 25.3685 34.2832 24.3279C34.2832 23.8142 34.3617 23.34 34.5057 22.879C33.2363 21.7462 32.438 20.35 32.438 18.743C32.438 17.1492 33.2232 15.7661 34.4795 14.6465C33.7074 14.0405 32.883 13.5268 32.0062 13.1317ZM46.5843 13.4346C43.1819 13.4346 40.1066 14.1591 37.9997 15.226C35.8797 16.293 34.8852 17.6102 34.8852 18.743C34.8852 19.8889 35.8797 21.2061 37.9997 22.2731C40.1066 23.34 43.1819 24.0645 46.5843 24.0645C48.0631 24.0645 49.4633 23.9196 50.7589 23.6825V21.4432C52.5779 21.1666 54.0828 20.6661 55.0512 20.0207V22.3389C56.687 21.8647 58.2573 20.1129 58.2966 18.743C58.2966 17.6102 57.302 16.293 55.182 15.226C53.062 14.1591 49.9999 13.4346 46.5843 13.4346ZM59.2126 22.3521C58.7808 22.8131 58.2704 23.2478 57.6946 23.643L57.7208 27.4629C59.3697 26.475 60.1417 25.329 60.1417 24.3279C60.1417 23.6957 59.8408 23.0107 59.2126 22.3521ZM36.7303 24.3806C36.7696 25.5134 37.7642 26.7911 39.8449 27.8449C41.9649 28.925 45.0271 29.6363 48.4426 29.6363C50.5756 29.6363 52.5779 29.3465 54.2922 28.8723L54.3838 25.2895C52.1329 26.0798 49.4633 26.5145 46.5843 26.5145C42.8547 26.5145 39.4654 25.7637 36.9005 24.4728C36.835 24.4465 36.7827 24.407 36.7303 24.3806ZM36.9921 28.9645C36.8089 29.3201 36.7303 29.6758 36.7303 30.0051C36.7303 31.151 37.7249 32.4683 39.8449 33.5352C41.9649 34.6021 45.0271 35.3134 48.4426 35.3134C50.17 35.3134 51.8058 35.1422 53.2845 34.8129V31.6516C51.7665 31.9414 50.1438 32.0863 48.4426 32.0863C44.6999 32.0863 41.3106 31.3486 38.7456 30.0446C38.1044 29.7285 37.5155 29.3596 36.9921 28.9645ZM59.88 28.9645C59.0818 29.5309 58.3882 29.9524 57.5768 30.308V33.2454C59.3173 32.2312 60.1417 31.0457 60.1417 30.0051C60.1417 29.6758 60.0632 29.3201 59.88 28.9645ZM60.8615 33.8118C60.5998 34.0752 60.3119 34.3255 59.9978 34.5758V38.8435C61.3457 37.9215 62 36.9072 62 35.9852C62 35.2871 61.6205 34.5363 60.8615 33.8118ZM38.6017 35.6559C38.5886 35.7744 38.5755 35.8798 38.5755 35.9852C38.5755 37.1312 39.5701 38.4352 41.6901 39.5021C43.81 40.5822 46.8853 41.2935 50.2878 41.2935C52.2376 41.2935 54.0959 41.0564 55.7055 40.6613V36.7228C53.5724 37.4078 51.0991 37.7766 48.4426 37.7766C44.6999 37.7766 41.3106 37.0258 38.7456 35.7349C38.6933 35.7086 38.654 35.6822 38.6017 35.6559ZM36.8219 38.4747C35.6834 39.3309 35.1469 40.2661 35.1469 41.1091C35.1469 42.2551 36.1415 43.5591 38.2614 44.6392C40.3814 45.7062 43.4436 46.4175 46.8591 46.4175C48.1023 46.4175 49.3063 46.3253 50.4317 46.154V43.7567H50.2878C46.5451 43.7567 43.1557 43.0059 40.5908 41.7019C38.955 40.8852 37.594 39.7919 36.8219 38.4747ZM58.0872 42.5054C57.0534 42.8742 55.928 43.1771 54.724 43.3747V44.9685C54.9726 44.8632 55.2213 44.7578 55.4568 44.6392C56.7393 43.9806 57.603 43.243 58.0872 42.5054ZM59.2911 44.9027C58.7939 45.4032 58.2181 45.8511 57.5768 46.2594V50.0266C59.3173 49.0255 60.1417 47.84 60.1417 46.7994C60.1417 46.1935 59.8669 45.5349 59.2911 44.9027ZM13.6592 45.2715C12.3244 45.2847 10.8849 45.4559 9.39304 45.8115C6.40806 46.5097 3.84183 47.7874 2.16679 49.1968C0.491738 50.593 -0.162577 52.0156 0.0337171 53.0298C0.230012 54.0441 1.26383 54.9793 3.27912 55.5193C5.28787 56.0462 8.0975 56.0726 11.0812 55.3745C12.2851 55.0847 13.4105 54.7159 14.4444 54.2812V51.5546C16.355 50.6984 17.7814 49.671 18.4226 48.6699V51.8839C20.006 50.514 20.6211 49.1441 20.4379 48.143C20.2547 47.1287 19.2078 46.1935 17.1925 45.6666C16.1848 45.4032 14.9809 45.2583 13.6592 45.2715ZM22.1129 45.9564C22.4663 46.4701 22.7149 47.0497 22.8458 47.6951C22.9897 48.4855 22.9243 49.2494 22.6887 50.0003C23.9843 50.3427 25.162 50.8037 26.1828 51.3833C26.7586 51.6995 27.2951 52.0814 27.7662 52.4766C28.944 52.2 29.9385 51.8048 30.6452 51.3306V54.0441C32.7521 53.043 33.7205 51.818 33.7205 50.8433C33.7205 49.8554 32.7521 48.6304 30.6321 47.6293C28.5252 46.6414 25.4892 45.9696 22.1129 45.9564ZM36.7434 46.615C36.7303 46.6677 36.7303 46.7336 36.7303 46.7994C36.7303 47.9454 37.7249 49.2494 39.8449 50.3296C41.9649 51.3965 45.0271 52.1078 48.4426 52.1078C50.17 52.1078 51.8058 51.9234 53.2845 51.6072V48.064C51.3477 48.5908 49.1623 48.8806 46.8591 48.8806C43.1165 48.8806 39.7271 48.1298 37.1622 46.839C37.0182 46.7599 36.8743 46.6809 36.7434 46.615ZM37.1098 51.5282C36.8481 51.9629 36.7303 52.3844 36.7303 52.7927C36.7303 53.9387 37.7249 55.2427 39.8449 56.3228C41.9649 57.3898 45.0271 58.1011 48.4426 58.1011C50.17 58.1011 51.8058 57.9167 53.2845 57.6005V54.1231C51.7665 54.4129 50.1438 54.571 48.4426 54.571C44.6999 54.571 41.3106 53.8202 38.7456 52.5161C38.1567 52.2263 37.6071 51.897 37.1098 51.5282ZM59.7622 51.5282C59.0032 52.0419 58.3358 52.4503 57.5768 52.7796V56.0199C59.3173 55.0188 60.1417 53.8333 60.1417 52.7927C60.1417 52.3844 60.024 51.9629 59.7622 51.5282ZM21.4717 52.2395C21.0137 52.8191 20.4771 53.3723 19.8752 53.8728C17.8337 55.5984 14.9547 56.9946 11.6308 57.7718C10.4452 58.0484 9.26742 58.2196 8.13676 58.3118C8.55552 59.0099 9.29228 59.6949 10.3706 60.3008C12.1543 61.3151 14.7715 62 17.6767 62C18.9984 62 20.2547 61.8551 21.4063 61.6048V58.8651C23.2122 58.5884 24.7302 58.0879 25.6986 57.4425V59.8661C27.0072 58.9441 27.6354 57.9035 27.6354 56.9156C27.6354 55.7696 26.7847 54.5446 24.9919 53.5304C24.0235 52.9903 22.8196 52.5425 21.4717 52.2395Z" fill="white"/>
</svg>
