<svg width="47" height="54" viewBox="0 0 47 54" fill="none" xmlns="http://www.w3.org/2000/svg">
<path d="M25.4054 36C25.4054 38.8543 23.1443 41.1429 20.3243 41.1429C18.9767 41.1429 17.6843 40.601 16.7315 39.6365C15.7786 38.6721 15.2432 37.364 15.2432 36C15.2432 33.1457 17.5043 30.8571 20.3243 30.8571C21.6719 30.8571 22.9643 31.399 23.9172 32.3635C24.8701 33.3279 25.4054 34.636 25.4054 36ZM23.0935 48.8571C23.3984 50.7086 24.0335 52.4314 24.9227 54H5.08108C3.73349 54 2.4411 53.4582 1.48821 52.4937C0.535326 51.5292 0 50.2211 0 48.8571V23.1429C0 20.2886 2.26108 18 5.08108 18H7.62162V12.8571C7.62162 5.76 13.3124 0 20.3243 0C27.3362 0 33.027 5.76 33.027 12.8571V18H35.5676C36.9152 18 38.2075 18.5418 39.1604 19.5063C40.1133 20.4708 40.6486 21.7789 40.6486 23.1429V31.0886C39.8103 30.96 38.9719 30.8571 38.1081 30.8571C37.2443 30.8571 36.4059 30.96 35.5676 31.0886V23.1429H5.08108V48.8571H23.0935ZM12.7027 18H27.9459V12.8571C27.9459 8.58857 24.5416 5.14286 20.3243 5.14286C16.107 5.14286 12.7027 8.58857 12.7027 12.8571V18ZM44.053 38.16L34.9324 47.3914L30.893 43.3029L27.9459 46.2857L34.9324 54L47 41.7857L44.053 38.16Z" fill="white"/>
</svg>
