<svg width="59" height="50" viewBox="0 0 59 50" fill="none" xmlns="http://www.w3.org/2000/svg">
<path fill-rule="evenodd" clip-rule="evenodd" d="M51.7783 8.60615L52.998 13.1577C53.1605 13.7651 53.1507 14.4058 52.9699 15.008C52.7891 15.6102 52.4444 16.1502 51.9742 16.5676L51.8101 16.7053C51.002 17.3358 50.3942 18.1874 50.0605 19.1567C49.7268 20.126 49.6815 21.1713 49.9301 22.1658C50.1787 23.1603 50.7106 24.0613 51.4612 24.7594C52.2117 25.4575 53.1487 25.9227 54.1584 26.0986L54.3871 26.1335C55.0268 26.2172 55.6272 26.4888 56.1125 26.9138C56.5978 27.3389 56.9461 27.8984 57.1135 28.5215L58.3554 33.1557C58.4995 33.693 58.5364 34.2535 58.4639 34.8051C58.3914 35.3568 58.211 35.8887 57.9329 36.3706C57.6549 36.8524 57.2847 37.2748 56.8434 37.6135C56.4021 37.9522 55.8985 38.2007 55.3612 38.3447L12.4071 49.856C11.3222 50.1464 10.1664 49.9939 9.19392 49.4321C8.22142 48.8703 7.51184 47.9451 7.22125 46.8601L6.05343 42.5002C5.88 41.8513 5.88663 41.1674 6.07261 40.522C6.25859 39.8767 6.6169 39.2942 7.10902 38.8372L7.2816 38.6889C8.07285 38.0432 8.66055 37.1825 8.97389 36.2104C9.28724 35.2383 9.31286 34.1963 9.04767 33.2099C8.78248 32.2236 8.23779 31.335 7.47924 30.6512C6.72068 29.9674 5.78062 29.5176 4.77233 29.356C4.07497 29.2435 3.42501 28.9317 2.90073 28.4583C2.37645 27.9848 2.0002 27.3698 1.81731 26.6874L0.6442 22.3105C0.500282 21.7731 0.463626 21.2126 0.536325 20.661C0.609023 20.1094 0.789653 19.5775 1.0679 19.0957C1.34614 18.614 1.71655 18.1917 2.15796 17.8532C2.59938 17.5146 3.10315 17.2663 3.64051 17.1226L46.5914 5.61133C47.1287 5.46718 47.6891 5.43031 48.2406 5.50281C48.7921 5.57531 49.3239 5.75577 49.8056 6.03387C50.2874 6.31198 50.7097 6.68228 51.0483 7.12364C51.387 7.56499 51.6344 8.06876 51.7783 8.60615ZM47.3696 9.24896L4.78503 20.6617C4.19742 20.8195 3.84803 21.4242 4.00578 22.0119L4.84326 25.1391C6.65431 25.5041 8.3275 26.3676 9.67434 27.6324C11.0212 28.8972 11.9882 30.513 12.4664 32.2979C12.9447 34.0828 12.9151 35.9659 12.381 37.735C11.847 39.504 10.8296 41.0888 9.4436 42.3106L10.2811 45.4378C10.4399 46.0256 11.0434 46.375 11.631 46.2173L54.2146 34.8045C54.8022 34.6467 55.1516 34.042 54.9938 33.4543L54.1574 30.3282C52.3462 29.9631 50.6729 29.0994 49.3261 27.8344C47.9792 26.5694 47.0123 24.9534 46.5343 23.1683C46.0559 21.3835 46.0853 19.5005 46.6191 17.7314C47.153 15.9624 48.1702 14.3776 49.556 13.1556L48.7185 10.0284C48.6812 9.88847 48.6166 9.7573 48.5285 9.64238C48.4404 9.52746 48.3305 9.43105 48.2052 9.35865C48.0798 9.28626 47.9413 9.23931 47.7978 9.22048C47.6542 9.20166 47.5094 9.21134 47.3696 9.24896ZM46.0102 32.0797C46.1181 32.4828 46.1456 32.9031 46.091 33.3167C46.0365 33.7304 45.9011 34.1292 45.6925 34.4905C45.4838 34.8518 45.2061 35.1684 44.8751 35.4224C44.5442 35.6763 44.1664 35.8626 43.7635 35.9705C43.3605 36.0784 42.9403 36.1059 42.5268 36.0513C42.1132 35.9968 41.7144 35.8613 41.3532 35.6527C40.992 35.444 40.6754 35.1662 40.4216 34.8352C40.1677 34.5041 39.9815 34.1263 39.8736 33.7233C39.6557 32.9094 39.77 32.0422 40.1913 31.3125C40.6126 30.5829 41.3065 30.0505 42.1203 29.8326C42.934 29.6146 43.801 29.7289 44.5305 30.1504C45.26 30.5718 45.7923 31.2658 46.0102 32.0797ZM43.8185 23.8959C44.0366 24.7098 43.9224 25.577 43.5012 26.3068C43.08 27.0365 42.3861 27.569 41.5724 27.7871C40.7586 28.0052 39.8916 27.891 39.162 27.4697C38.4324 27.0484 37.9 26.3544 37.6819 25.5405C37.4763 24.7308 37.5978 23.8727 38.0201 23.152C38.4424 22.4312 39.1315 21.9059 39.9383 21.6896C40.745 21.4734 41.6044 21.5837 42.3305 21.9966C43.0565 22.4095 43.5918 23.0918 43.8185 23.8959ZM41.6248 15.713C41.7327 16.1161 41.7603 16.5364 41.7058 16.9501C41.6514 17.3637 41.516 17.7626 41.3074 18.124C41.0989 18.4853 40.8212 18.802 40.4902 19.056C40.1593 19.31 39.7815 19.4963 39.3786 19.6043C38.9757 19.7123 38.5554 19.7398 38.1418 19.6854C37.7283 19.6309 37.3295 19.4955 36.9682 19.2869C36.6069 19.0783 36.2903 18.8005 36.0364 18.4695C35.7824 18.1385 35.5961 17.7607 35.4882 17.3576C35.2701 16.5437 35.3843 15.6765 35.8055 14.9467C36.2268 14.217 36.9206 13.6845 37.7343 13.4664C38.5481 13.2483 39.4152 13.3625 40.1448 13.7838C40.8744 14.2051 41.4067 14.8991 41.6248 15.713ZM30.6528 1.80637L33.3548 5.66533C33.3943 5.72252 33.4321 5.78041 33.468 5.83901L7.61829 12.7669L24.7544 0.765385C25.6745 0.121383 26.8127 -0.130733 27.9186 0.0644817C29.0245 0.259697 30.0087 0.886257 30.6528 1.80637Z" fill="white"/>
</svg>
