<svg width="133" height="27" viewBox="0 0 133 27" fill="none" xmlns="http://www.w3.org/2000/svg">
<path d="M12.3489 2.92705C12.6483 2.00574 13.9517 2.00574 14.2511 2.92705L16.0615 8.49909C16.1954 8.91111 16.5794 9.19007 17.0126 9.19007H22.8714C23.8401 9.19007 24.2429 10.4297 23.4592 10.9991L18.7193 14.4428C18.3688 14.6974 18.2221 15.1488 18.356 15.5608L20.1665 21.1329C20.4658 22.0542 19.4114 22.8203 18.6276 22.2509L13.8878 18.8072C13.5373 18.5526 13.0627 18.5526 12.7122 18.8072L7.97235 22.2509C7.18864 22.8203 6.13416 22.0542 6.43351 21.1329L8.24398 15.5608C8.37785 15.1488 8.23119 14.6974 7.88071 14.4428L3.14085 10.9991C2.35713 10.4297 2.75991 9.19007 3.72863 9.19007H9.58742C10.0206 9.19007 10.4046 8.91111 10.5385 8.49909L12.3489 2.92705Z" fill="#FCE00B"/>
<path d="M38.949 2.92705C39.2484 2.00574 40.5518 2.00574 40.8512 2.92705L42.6616 8.49909C42.7955 8.91111 43.1795 9.19007 43.6127 9.19007H49.4715C50.4402 9.19007 50.843 10.4297 50.0592 10.9991L45.3194 14.4428C44.9689 14.6974 44.8222 15.1488 44.9561 15.5608L46.7666 21.1329C47.0659 22.0542 46.0115 22.8203 45.2277 22.2509L40.4879 18.8072C40.1374 18.5526 39.6628 18.5526 39.3123 18.8072L34.5725 22.2509C33.7887 22.8203 32.7343 22.0542 33.0336 21.1329L34.8441 15.5608C34.978 15.1488 34.8313 14.6974 34.4808 14.4428L29.7409 10.9991C28.9572 10.4297 29.36 9.19007 30.3287 9.19007H36.1875C36.6207 9.19007 37.0047 8.91111 37.1386 8.49909L38.949 2.92705Z" fill="#FCE00B"/>
<path d="M65.5491 2.92705C65.8485 2.00574 67.1519 2.00574 67.4513 2.92705L69.2617 8.49909C69.3956 8.91111 69.7795 9.19007 70.2128 9.19007H76.0716C77.0403 9.19007 77.4431 10.4297 76.6593 10.9991L71.9195 14.4428C71.569 14.6974 71.4223 15.1488 71.5562 15.5608L73.3667 21.1329C73.666 22.0542 72.6116 22.8203 71.8278 22.2509L67.088 18.8072C66.7375 18.5526 66.2629 18.5526 65.9124 18.8072L61.1725 22.2509C60.3888 22.8203 59.3344 22.0542 59.6337 21.1329L61.4442 15.5608C61.578 15.1488 61.4314 14.6974 61.0809 14.4428L56.341 10.9991C55.5573 10.4297 55.9601 9.19007 56.9288 9.19007H62.7876C63.2208 9.19007 63.6048 8.91111 63.7387 8.49909L65.5491 2.92705Z" fill="#FCE00B"/>
<path d="M92.1487 2.92705C92.4481 2.00574 93.7515 2.00574 94.0509 2.92705L95.8613 8.49909C95.9952 8.91111 96.3792 9.19007 96.8124 9.19007H102.671C103.64 9.19007 104.043 10.4297 103.259 10.9991L98.5191 14.4428C98.1686 14.6974 98.022 15.1488 98.1558 15.5608L99.9663 21.1329C100.266 22.0542 99.2112 22.8203 98.4275 22.2509L93.6876 18.8072C93.3371 18.5526 92.8625 18.5526 92.512 18.8072L87.7722 22.2509C86.9884 22.8203 85.934 22.0542 86.2333 21.1329L88.0438 15.5608C88.1777 15.1488 88.031 14.6974 87.6805 14.4428L82.9407 10.9991C82.1569 10.4297 82.5597 9.19007 83.5284 9.19007H89.3872C89.8205 9.19007 90.2044 8.91111 90.3383 8.49909L92.1487 2.92705Z" fill="#FCE00B"/>
<path d="M118.749 2.92705C119.048 2.00574 120.352 2.00574 120.651 2.92705L122.461 8.49909C122.595 8.91111 122.979 9.19007 123.412 9.19007H129.271C130.24 9.19007 130.643 10.4297 129.859 10.9991L125.119 14.4428C124.769 14.6974 124.622 15.1488 124.756 15.5608L126.566 21.1329C126.866 22.0542 125.811 22.8203 125.028 22.2509L120.288 18.8072C119.937 18.5526 119.463 18.5526 119.112 18.8072L114.372 22.2509C113.589 22.8203 112.534 22.0542 112.833 21.1329L114.644 15.5608C114.778 15.1488 114.631 14.6974 114.281 14.4428L109.541 10.9991C108.757 10.4297 109.16 9.19007 110.129 9.19007H115.987C116.421 9.19007 116.805 8.91111 116.938 8.49909L118.749 2.92705Z" fill="#FCE00B"/>
</svg>
